<?xml version="1.0"?>
<svg xmlns="http://www.w3.org/2000/svg" xmlns:xlink="http://www.w3.org/1999/xlink" xmlns:svgjs="http://svgjs.com/svgjs" version="1.1" width="512" height="512" x="0" y="0" viewBox="0 0 32 32" style="enable-background:new 0 0 512 512" xml:space="preserve" class=""><g><path xmlns="http://www.w3.org/2000/svg" d="m30 24v4c0 1.103-.897 2-2 2h-24c-1.103 0-2-.897-2-2v-4c0-.552.447-1 1-1s1 .448 1 1v4h24v-4c0-.552.447-1 1-1s1 .448 1 1z" fill="#ffffff" data-original="#000000" class=""/><path xmlns="http://www.w3.org/2000/svg" d="m8.293 10.707c-.391-.391-.391-1.023 0-1.414l6.999-6.999c.391-.392 1.03-.387 1.416 0l6.999 6.999c.391.391.391 1.023 0 1.414-.195.195-.451.293-.707.293s-.512-.098-.707-.293l-5.293-5.293v17.586c0 .552-.447 1-1 1s-1-.448-1-1v-17.586l-5.293 5.293c-.391.391-1.023.391-1.414 0z" fill="#ffffff" data-original="#000000" class=""/></g></svg>
